<?xml version="1.0" encoding="UTF-8" standalone="no"?>
<!-- Created with Inkscape (http://www.inkscape.org/) -->

<svg
   xmlns:dc="http://purl.org/dc/elements/1.1/"
   xmlns:cc="http://creativecommons.org/ns#"
   xmlns:rdf="http://www.w3.org/1999/02/22-rdf-syntax-ns#"
   xmlns:svg="http://www.w3.org/2000/svg"
   xmlns="http://www.w3.org/2000/svg"
   xmlns:sodipodi="http://sodipodi.sourceforge.net/DTD/sodipodi-0.dtd"
   xmlns:inkscape="http://www.inkscape.org/namespaces/inkscape"
   width="29.09"
   height="24.360001"
   id="svg2"
   version="1.1"
   inkscape:version="0.48.5 r10040"
   sodipodi:docname="hardMute.svg">
  <defs
     id="defs4" />
  <sodipodi:namedview
     id="base"
     pagecolor="#ffffff"
     bordercolor="#666666"
     borderopacity="1.0"
     inkscape:pageopacity="0.0"
     inkscape:pageshadow="2"
     inkscape:zoom="5.6568542"
     inkscape:cx="17.21217"
     inkscape:cy="10.676023"
     inkscape:document-units="px"
     inkscape:current-layer="layer1"
     showgrid="false"
     inkscape:window-width="843"
     inkscape:window-height="440"
     inkscape:window-x="104"
     inkscape:window-y="138"
     inkscape:window-maximized="0"
     showborder="false"
     height="1052.36px"
     borderlayer="true" />
  <metadata
     id="metadata7">
    <rdf:RDF>
      <cc:Work
         rdf:about="">
        <dc:format>image/svg+xml</dc:format>
        <dc:type
           rdf:resource="http://purl.org/dc/dcmitype/StillImage" />
        <dc:title></dc:title>
      </cc:Work>
    </rdf:RDF>
  </metadata>
  <g
     inkscape:label="Layer 1"
     inkscape:groupmode="layer"
     id="layer1"
     transform="translate(0,-1027.996)">
    <g
       id="g5393"
       transform="translate(4,0)">
      <path
         transform="matrix(0.09979467,0,0,0.06086341,-16.308921,1010.11)"
         d="m 380.00001,486.64789 c 0,86.7876 -19.82739,157.14285 -44.28572,157.14285 -24.45832,0 -44.28571,-70.35525 -44.28571,-157.14285 0,-86.7876 19.82739,-157.14285 44.28571,-157.14285 24.45833,0 44.28572,70.35525 44.28572,157.14285 z"
         sodipodi:ry="157.14285"
         sodipodi:rx="44.285713"
         sodipodi:cy="486.64789"
         sodipodi:cx="335.71429"
         id="path3025"
         style="fill:#000000;fill-opacity:1"
         sodipodi:type="arc" />
      <path
         transform="matrix(0.09020055,0,0,0.06694975,-24.007524,1007.6646)"
         d="m 474.28572,476.64789 c 0,76.53088 -17.26901,138.57142 -38.57143,138.57142 -21.30241,0 -38.57143,-62.04054 -38.57143,-138.57142 0,-76.53089 17.26902,-138.57143 38.57143,-138.57143 21.30242,0 38.57143,62.04054 38.57143,138.57143 z"
         sodipodi:ry="138.57143"
         sodipodi:rx="38.57143"
         sodipodi:cy="476.64789"
         sodipodi:cx="435.71429"
         id="path3052"
         style="fill:#ffffff;fill-opacity:1"
         sodipodi:type="arc" />
      <g
         transform="translate(-16.617009,3.8890873)"
         id="g5389">
        <path
           sodipodi:type="arc"
           style="fill:#000000;fill-opacity:1"
           id="path3025-80"
           sodipodi:cx="335.71429"
           sodipodi:cy="486.64789"
           sodipodi:rx="44.285713"
           sodipodi:ry="157.14285"
           d="m 380.00001,486.64789 c 0,86.7876 -19.82739,157.14285 -44.28572,157.14285 -24.45832,0 -44.28571,-70.35525 -44.28571,-157.14285 0,-86.7876 19.82739,-157.14285 44.28571,-157.14285 24.45833,0 44.28572,70.35525 44.28572,157.14285 z"
           transform="matrix(0.06157544,0,0,0.03712668,9.5627669,1017.0164)" />
        <path
           sodipodi:type="arc"
           style="fill:#ffffff;fill-opacity:1"
           id="path3054"
           sodipodi:cx="351.42856"
           sodipodi:cy="468.07648"
           sodipodi:rx="25.714285"
           sodipodi:ry="81.428566"
           d="m 377.14284,468.07648 c 0,44.97175 -11.51267,81.42856 -25.71428,81.42856 -14.20161,0 -25.71429,-36.45681 -25.71429,-81.42856 0,-44.97176 11.51268,-81.42857 25.71429,-81.42857 14.20161,0 25.71428,36.45681 25.71428,81.42857 z"
           transform="matrix(0.06582202,0,0,0.06694975,5.4948452,1003.6416)" />
      </g>
      <g
         id="g5373">
        <rect
           style="fill:#000000;fill-opacity:1"
           id="rect2987"
           width="8.0494757"
           height="5.9090524"
           x="-578.83441"
           y="933.45361"
           transform="matrix(0.89412145,-0.44782456,0.55404472,0.8324869,0,0)" />
        <rect
           style="fill:#000000;fill-opacity:1"
           id="rect2987-4"
           width="7.9028726"
           height="6.0211592"
           x="547.66455"
           y="912.07831"
           transform="matrix(0.87995814,0.47505123,-0.52537026,0.85087372,0,0)" />
        <rect
           style="fill:#f7efff;fill-opacity:1"
           id="rect3009"
           width="3.8176897"
           height="16.557421"
           x="6.6547437"
           y="1031.4575" />
        <rect
           style="fill:#000000;fill-opacity:1"
           id="rect2985"
           width="9.6287479"
           height="5.1646953"
           x="-7.8356347"
           y="1036.2721"
           ry="0" />
        <path
           sodipodi:type="arc"
           style="fill:none;stroke:none"
           id="path3056"
           sodipodi:cx="238.57143"
           sodipodi:cy="472.36218"
           sodipodi:rx="15.714286"
           sodipodi:ry="40"
           d="m 254.28571,472.36218 c 0,22.09139 -7.03552,40 -15.71428,40 -8.67876,0 -15.71429,-17.90861 -15.71429,-40 0,-22.09139 7.03553,-40 15.71429,-40 8.67876,0 15.71428,17.90861 15.71428,40 z"
           transform="matrix(0.06582202,0,0,0.06694975,-10.60395,1007.1771)" />
      </g>
      <g
         transform="translate(-2.1213204,-18.73833)"
         id="g5362">
        <path
           sodipodi:type="arc"
           style="fill:#000000;fill-opacity:1"
           id="path3025-8"
           sodipodi:cx="335.71429"
           sodipodi:cy="486.64789"
           sodipodi:rx="44.285713"
           sodipodi:ry="157.14285"
           d="m 380.00001,486.64789 c 0,86.7876 -19.82739,157.14285 -44.28572,157.14285 -24.45832,0 -44.28571,-70.35525 -44.28571,-157.14285 0,-86.7876 19.82739,-157.14285 44.28571,-157.14285 24.45833,0 44.28572,70.35525 44.28572,157.14285 z"
           transform="matrix(0.04034253,0,0,0.01521585,-1.361936,1050.0679)" />
        <path
           sodipodi:type="arc"
           style="fill:#f7efff;fill-opacity:1;stroke:none"
           id="path5360"
           sodipodi:cx="10.341436"
           sodipodi:cy="29.221359"
           sodipodi:rx="1.3258252"
           sodipodi:ry="2.3864853"
           d="m 11.667262,29.221359 c 0,1.31802 -0.593593,2.386486 -1.325826,2.386486 -0.7322327,0 -1.3258248,-1.068466 -1.3258248,-2.386486 0,-1.318019 0.5935921,-2.386485 1.3258248,-2.386485 0.732233,0 1.325826,1.068466 1.325826,2.386485 z"
           transform="translate(0,1027.996)" />
      </g>
      <rect
         transform="matrix(0.70107543,-0.71308712,0.70107543,0.71308712,0,0)"
         y="732.39392"
         x="-737.026"
         height="1.7071269"
         width="26.744989"
         id="rect3064"
         style="fill:#ff0000;fill-opacity:1" />
    </g>
  </g>
</svg>
